<?xml version="1.0" encoding="UTF-8" standalone="no"?>
<!DOCTYPE svg PUBLIC "-//W3C//DTD SVG 1.1//EN" "http://www.w3.org/Graphics/SVG/1.1/DTD/svg11.dtd">
<svg width="100%" height="100%" viewBox="0 0 45 380" version="1.1" xmlns="http://www.w3.org/2000/svg" xmlns:xlink="http://www.w3.org/1999/xlink" xml:space="preserve" xmlns:serif="http://www.serif.com/" style="fill-rule:evenodd;clip-rule:evenodd;stroke-linejoin:round;stroke-miterlimit:2;">
    <g id="panel" transform="matrix(0.834722,0,0,1.04324,-803.837,250.623)">
        <g id="path3835" transform="matrix(0.234524,0,0,1.00145,942.624,-390.727)">
            <rect x="86.88" y="150.274" width="229.871" height="363.723" style="fill:rgb(119,65,65);stroke:black;stroke-width:5.32px;"/>
        </g>
        <g transform="matrix(1.198,0,0,0.958552,966.705,-213.526)">
            <g transform="matrix(13,0,0,13,5.60689,0)">
                <path d="M0.2,-0.603L0.2,-0.435L0.437,-0.435L0.437,-0.327L0.2,-0.327L0.2,-0.113L0.524,-0.113L0.524,-0L0.073,-0L0.073,-0.715L0.53,-0.715L0.53,-0.603L0.2,-0.603Z" style="fill:white;fill-opacity:0.8;fill-rule:nonzero;"/>
            </g>
            <g transform="matrix(13,0,0,13,13.0019,0)">
                <path d="M0.46,-0L0.291,-0.257L0.135,-0L0.002,-0L0.217,-0.371L0.02,-0.716L0.149,-0.715L0.294,-0.474L0.454,-0.715L0.587,-0.715L0.36,-0.369L0.598,-0L0.46,-0Z" style="fill:white;fill-opacity:0.8;fill-rule:nonzero;"/>
            </g>
            <g transform="matrix(13,0,0,13,20.8095,0)">
                <rect x="0.076" y="-0.715" width="0.127" height="0.715" style="fill:white;fill-opacity:0.8;fill-rule:nonzero;"/>
            </g>
            <g transform="matrix(13,0,0,13,24.4277,0)">
                <path d="M0.364,-0.603L0.364,-0L0.237,-0L0.237,-0.603L0.01,-0.603L0.01,-0.715L0.602,-0.715L0.602,-0.603L0.364,-0.603Z" style="fill:white;fill-opacity:0.8;fill-rule:nonzero;"/>
            </g>
        </g>
        <g transform="matrix(0.721688,0,0,0.719491,275.416,27.6954)">
            <g transform="matrix(1.198,0,0,0.958552,893.633,-224.914)">
                <g transform="matrix(9,0,0,9,64.0056,347.267)">
                    <path d="M0.919,-0L0.762,-0L0.762,-0.308C0.762,-0.391 0.732,-0.432 0.671,-0.432C0.643,-0.432 0.62,-0.42 0.602,-0.395C0.583,-0.369 0.574,-0.339 0.574,-0.303L0.574,-0L0.417,-0L0.417,-0.312C0.417,-0.392 0.387,-0.432 0.327,-0.432C0.298,-0.432 0.274,-0.42 0.256,-0.396C0.238,-0.372 0.229,-0.341 0.229,-0.301L0.229,-0L0.072,-0L0.072,-0.54L0.229,-0.54L0.229,-0.456L0.231,-0.456C0.25,-0.486 0.275,-0.51 0.307,-0.528C0.338,-0.545 0.371,-0.553 0.405,-0.553C0.481,-0.553 0.533,-0.519 0.561,-0.451C0.603,-0.519 0.663,-0.553 0.743,-0.553C0.86,-0.553 0.919,-0.481 0.919,-0.335L0.919,-0Z" style="fill:white;fill-opacity:0.8;fill-rule:nonzero;"/>
                </g>
                <g transform="matrix(9,0,0,9,72.978,347.267)">
                    <path d="M0.551,-0.226L0.196,-0.226C0.201,-0.142 0.252,-0.1 0.347,-0.1C0.407,-0.1 0.459,-0.115 0.505,-0.144L0.505,-0.028C0.456,-0.001 0.391,0.013 0.312,0.013C0.226,0.013 0.159,-0.011 0.111,-0.06C0.063,-0.108 0.04,-0.176 0.04,-0.262C0.04,-0.348 0.065,-0.419 0.116,-0.472C0.167,-0.526 0.23,-0.553 0.307,-0.553C0.384,-0.553 0.443,-0.53 0.487,-0.484C0.53,-0.437 0.551,-0.374 0.551,-0.292L0.551,-0.226ZM0.404,-0.324C0.404,-0.405 0.372,-0.445 0.306,-0.445C0.279,-0.445 0.255,-0.434 0.234,-0.412C0.214,-0.39 0.201,-0.361 0.195,-0.324L0.404,-0.324Z" style="fill:white;fill-opacity:0.8;fill-rule:nonzero;"/>
                </g>
                <g transform="matrix(9,0,0,9,78.3513,347.267)">
                    <rect x="0.069" y="-0.799" width="0.157" height="0.799" style="fill:white;fill-opacity:0.8;fill-rule:nonzero;"/>
                </g>
                <g transform="matrix(9,0,0,9,81.1494,347.267)">
                    <path d="M0.593,-0L0.436,-0L0.436,-0.076L0.433,-0.076C0.395,-0.017 0.339,0.013 0.264,0.013C0.195,0.013 0.141,-0.011 0.1,-0.06C0.06,-0.108 0.04,-0.174 0.04,-0.258C0.04,-0.346 0.062,-0.418 0.108,-0.472C0.153,-0.526 0.212,-0.553 0.286,-0.553C0.356,-0.553 0.405,-0.528 0.433,-0.477L0.436,-0.477L0.438,-0.707L0.593,-0.658L0.593,-0ZM0.438,-0.306C0.438,-0.342 0.427,-0.372 0.405,-0.396C0.383,-0.42 0.356,-0.432 0.323,-0.432C0.284,-0.432 0.254,-0.417 0.232,-0.386C0.21,-0.356 0.199,-0.315 0.199,-0.263C0.199,-0.213 0.21,-0.175 0.231,-0.148C0.252,-0.121 0.281,-0.108 0.318,-0.108C0.353,-0.108 0.382,-0.122 0.404,-0.15C0.427,-0.179 0.438,-0.215 0.438,-0.261L0.438,-0.306Z" style="fill:white;fill-opacity:0.8;fill-rule:nonzero;"/>
                </g>
                <g transform="matrix(9,0,0,9,87.2654,347.267)">
                    <path d="M0.551,-0.226L0.196,-0.226C0.201,-0.142 0.252,-0.1 0.347,-0.1C0.407,-0.1 0.459,-0.115 0.505,-0.144L0.505,-0.028C0.456,-0.001 0.391,0.013 0.312,0.013C0.226,0.013 0.159,-0.011 0.111,-0.06C0.063,-0.108 0.04,-0.176 0.04,-0.262C0.04,-0.348 0.065,-0.419 0.116,-0.472C0.167,-0.526 0.23,-0.553 0.307,-0.553C0.384,-0.553 0.443,-0.53 0.487,-0.484C0.53,-0.437 0.551,-0.374 0.551,-0.292L0.551,-0.226ZM0.404,-0.324C0.404,-0.405 0.372,-0.445 0.306,-0.445C0.279,-0.445 0.255,-0.434 0.234,-0.412C0.214,-0.39 0.201,-0.361 0.195,-0.324L0.404,-0.324Z" style="fill:white;fill-opacity:0.8;fill-rule:nonzero;"/>
                </g>
                <g transform="matrix(9,0,0,9,92.6386,347.267)">
                    <path d="M0.416,-0.397C0.397,-0.408 0.374,-0.414 0.346,-0.414C0.31,-0.414 0.282,-0.4 0.261,-0.373C0.24,-0.345 0.229,-0.308 0.229,-0.26L0.229,-0L0.072,-0L0.072,-0.54L0.229,-0.54L0.229,-0.438L0.231,-0.438C0.257,-0.512 0.305,-0.549 0.374,-0.549C0.392,-0.549 0.406,-0.547 0.416,-0.543L0.416,-0.397Z" style="fill:white;fill-opacity:0.8;fill-rule:nonzero;"/>
                </g>
            </g>
            <g transform="matrix(1.198,0,0,0.958552,893.495,-231.786)">
                <g transform="matrix(9,0,0,9,68.6657,347.267)">
                    <path d="M0.058,-0.145C0.112,-0.112 0.165,-0.096 0.216,-0.096C0.281,-0.096 0.314,-0.113 0.314,-0.148C0.314,-0.173 0.287,-0.193 0.233,-0.21C0.166,-0.231 0.12,-0.254 0.095,-0.28C0.07,-0.305 0.058,-0.34 0.058,-0.383C0.058,-0.436 0.079,-0.478 0.122,-0.508C0.165,-0.538 0.221,-0.553 0.291,-0.553C0.34,-0.553 0.388,-0.546 0.434,-0.531L0.434,-0.407C0.392,-0.432 0.346,-0.444 0.295,-0.444C0.27,-0.444 0.25,-0.44 0.235,-0.431C0.22,-0.422 0.212,-0.41 0.212,-0.396C0.212,-0.371 0.235,-0.351 0.28,-0.335C0.329,-0.319 0.366,-0.304 0.39,-0.291C0.415,-0.278 0.434,-0.26 0.447,-0.238C0.459,-0.216 0.466,-0.191 0.466,-0.163C0.466,-0.107 0.444,-0.064 0.399,-0.033C0.354,-0.002 0.295,0.013 0.22,0.013C0.162,0.013 0.107,0.004 0.058,-0.015L0.058,-0.145Z" style="fill:white;fill-opacity:0.8;fill-rule:nonzero;"/>
                </g>
                <g transform="matrix(9,0,0,9,73.2436,347.267)">
                    <path d="M0.39,-0.006C0.366,0.007 0.33,0.013 0.282,0.013C0.167,0.013 0.11,-0.047 0.11,-0.167L0.11,-0.422L0.021,-0.422L0.021,-0.54L0.11,-0.54L0.11,-0.659L0.267,-0.704L0.267,-0.54L0.39,-0.54L0.39,-0.422L0.267,-0.422L0.267,-0.195C0.267,-0.137 0.289,-0.108 0.335,-0.108C0.353,-0.108 0.371,-0.114 0.39,-0.124L0.39,-0.006Z" style="fill:white;fill-opacity:0.8;fill-rule:nonzero;"/>
                </g>
                <g transform="matrix(6.6,0,0,6.6,77.1051,347.267)">
                    <path d="M0.106,0.032L0.043,-0.021L0.122,-0.115C0.067,-0.183 0.04,-0.268 0.04,-0.368C0.04,-0.487 0.075,-0.584 0.144,-0.658C0.213,-0.732 0.305,-0.769 0.418,-0.769C0.5,-0.769 0.571,-0.748 0.63,-0.706L0.698,-0.785L0.761,-0.733L0.689,-0.65C0.748,-0.581 0.778,-0.493 0.778,-0.384C0.778,-0.266 0.743,-0.17 0.674,-0.097C0.605,-0.023 0.516,0.013 0.406,0.013C0.32,0.013 0.246,-0.011 0.182,-0.059L0.106,0.032ZM0.54,-0.6C0.506,-0.628 0.463,-0.642 0.413,-0.642C0.349,-0.642 0.297,-0.617 0.258,-0.569C0.218,-0.52 0.199,-0.455 0.199,-0.375C0.199,-0.319 0.208,-0.273 0.227,-0.234L0.54,-0.6ZM0.275,-0.165C0.311,-0.131 0.356,-0.114 0.409,-0.114C0.473,-0.114 0.524,-0.137 0.563,-0.184C0.601,-0.231 0.62,-0.294 0.62,-0.374C0.62,-0.435 0.61,-0.488 0.588,-0.533L0.275,-0.165Z" style="fill:white;fill-opacity:0.8;fill-rule:nonzero;"/>
                </g>
                <g transform="matrix(9,0,0,9,82.6053,347.267)">
                    <path d="M0.551,-0.226L0.196,-0.226C0.201,-0.142 0.252,-0.1 0.347,-0.1C0.407,-0.1 0.459,-0.115 0.505,-0.144L0.505,-0.028C0.456,-0.001 0.391,0.013 0.312,0.013C0.226,0.013 0.159,-0.011 0.111,-0.06C0.063,-0.108 0.04,-0.176 0.04,-0.262C0.04,-0.348 0.065,-0.419 0.116,-0.472C0.167,-0.526 0.23,-0.553 0.307,-0.553C0.384,-0.553 0.443,-0.53 0.487,-0.484C0.53,-0.437 0.551,-0.374 0.551,-0.292L0.551,-0.226ZM0.404,-0.324C0.404,-0.405 0.372,-0.445 0.306,-0.445C0.279,-0.445 0.255,-0.434 0.234,-0.412C0.214,-0.39 0.201,-0.361 0.195,-0.324L0.404,-0.324Z" style="fill:white;fill-opacity:0.8;fill-rule:nonzero;"/>
                </g>
                <g transform="matrix(9,0,0,9,87.9786,347.267)">
                    <path d="M0.416,-0.397C0.397,-0.408 0.374,-0.414 0.346,-0.414C0.31,-0.414 0.282,-0.4 0.261,-0.373C0.24,-0.345 0.229,-0.308 0.229,-0.26L0.229,-0L0.072,-0L0.072,-0.54L0.229,-0.54L0.229,-0.438L0.231,-0.438C0.257,-0.512 0.305,-0.549 0.374,-0.549C0.392,-0.549 0.406,-0.547 0.416,-0.543L0.416,-0.397Z" style="fill:white;fill-opacity:0.8;fill-rule:nonzero;"/>
                </g>
            </g>
        </g>
        <g transform="matrix(1,0,0,1,2.08795,228.711)">
            <g transform="matrix(0.552947,0,0,1.41025,966.234,-285.621)">
                <path d="M73.138,59.642C73.138,58.142 69.254,56.924 64.471,56.924L13.773,56.924C8.99,56.924 5.107,58.142 5.107,59.642L5.107,80.985C5.107,82.486 8.99,83.704 13.773,83.704L64.471,83.704C69.254,83.704 73.138,82.486 73.138,80.985L73.138,59.642Z" style="fill:white;fill-opacity:0.5;"/>
            </g>
            <g transform="matrix(1.198,0,0,0.958552,938.307,-247.05)">
                <g transform="matrix(6.4,0,0,6.4,33.078,51.8924)">
                    <path d="M0.654,-0.089C0.675,-0.075 0.698,-0.061 0.723,-0.047C0.748,-0.034 0.765,-0.023 0.773,-0.015C0.781,-0.007 0.785,0.004 0.785,0.019C0.785,0.029 0.78,0.04 0.771,0.05C0.761,0.061 0.75,0.066 0.736,0.066C0.725,0.066 0.711,0.062 0.696,0.055C0.68,0.048 0.661,0.038 0.64,0.024C0.619,0.01 0.595,-0.006 0.57,-0.024C0.523,0 0.465,0.012 0.396,0.012C0.34,0.012 0.29,0.003 0.246,-0.014C0.202,-0.032 0.165,-0.058 0.135,-0.091C0.105,-0.124 0.083,-0.164 0.068,-0.21C0.052,-0.256 0.045,-0.306 0.045,-0.36C0.045,-0.415 0.053,-0.465 0.069,-0.511C0.084,-0.557 0.107,-0.596 0.137,-0.628C0.167,-0.661 0.204,-0.685 0.247,-0.702C0.29,-0.719 0.338,-0.728 0.393,-0.728C0.467,-0.728 0.531,-0.713 0.584,-0.683C0.637,-0.653 0.678,-0.61 0.705,-0.554C0.732,-0.499 0.746,-0.434 0.746,-0.359C0.746,-0.245 0.715,-0.155 0.654,-0.089ZM0.54,-0.168C0.56,-0.191 0.575,-0.218 0.585,-0.25C0.594,-0.282 0.599,-0.318 0.599,-0.36C0.599,-0.412 0.591,-0.458 0.574,-0.496C0.557,-0.535 0.533,-0.564 0.501,-0.583C0.47,-0.603 0.434,-0.613 0.393,-0.613C0.364,-0.613 0.337,-0.607 0.313,-0.596C0.288,-0.586 0.267,-0.57 0.249,-0.549C0.232,-0.528 0.218,-0.501 0.207,-0.469C0.197,-0.437 0.192,-0.4 0.192,-0.36C0.192,-0.278 0.211,-0.214 0.25,-0.17C0.288,-0.125 0.336,-0.103 0.395,-0.103C0.419,-0.103 0.444,-0.108 0.469,-0.118C0.454,-0.13 0.435,-0.141 0.412,-0.152C0.389,-0.164 0.373,-0.173 0.365,-0.179C0.356,-0.185 0.352,-0.194 0.352,-0.205C0.352,-0.215 0.356,-0.223 0.364,-0.231C0.372,-0.238 0.381,-0.242 0.391,-0.242C0.421,-0.242 0.47,-0.217 0.54,-0.168Z" style="fill-rule:nonzero;"/>
                </g>
                <g transform="matrix(6.4,0,0,6.4,38.2747,51.8924)">
                    <path d="M0.079,-0.296L0.079,-0.64C0.079,-0.669 0.086,-0.691 0.099,-0.706C0.112,-0.721 0.129,-0.728 0.151,-0.728C0.173,-0.728 0.191,-0.721 0.204,-0.706C0.218,-0.691 0.224,-0.669 0.224,-0.64L0.224,-0.288C0.224,-0.248 0.229,-0.215 0.238,-0.188C0.247,-0.161 0.262,-0.14 0.285,-0.125C0.308,-0.11 0.34,-0.103 0.381,-0.103C0.438,-0.103 0.478,-0.118 0.501,-0.148C0.524,-0.178 0.536,-0.224 0.536,-0.285L0.536,-0.64C0.536,-0.67 0.543,-0.692 0.556,-0.706C0.569,-0.721 0.586,-0.728 0.608,-0.728C0.63,-0.728 0.647,-0.721 0.661,-0.706C0.674,-0.692 0.681,-0.67 0.681,-0.64L0.681,-0.296C0.681,-0.24 0.676,-0.193 0.665,-0.156C0.654,-0.118 0.633,-0.085 0.603,-0.057C0.577,-0.033 0.547,-0.015 0.512,-0.004C0.478,0.007 0.437,0.012 0.391,0.012C0.336,0.012 0.289,0.006 0.249,-0.006C0.209,-0.017 0.177,-0.036 0.152,-0.061C0.127,-0.086 0.108,-0.118 0.097,-0.156C0.085,-0.195 0.079,-0.242 0.079,-0.296Z" style="fill-rule:nonzero;"/>
                </g>
                <g transform="matrix(6.4,0,0,6.4,43.2652,51.8924)">
                    <path d="M0.084,-0.076L0.084,-0.64C0.084,-0.669 0.091,-0.691 0.104,-0.706C0.117,-0.721 0.135,-0.728 0.156,-0.728C0.178,-0.728 0.195,-0.721 0.209,-0.706C0.222,-0.692 0.229,-0.67 0.229,-0.64L0.229,-0.076C0.229,-0.047 0.222,-0.024 0.209,-0.01C0.195,0.005 0.178,0.012 0.156,0.012C0.135,0.012 0.118,0.005 0.104,-0.01C0.091,-0.025 0.084,-0.047 0.084,-0.076Z" style="fill-rule:nonzero;"/>
                </g>
                <g transform="matrix(6.4,0,0,6.4,45.3964,51.8924)">
                    <path d="M0.543,-0.596L0.385,-0.596L0.385,-0.076C0.385,-0.046 0.378,-0.024 0.365,-0.01C0.351,0.005 0.334,0.012 0.313,0.012C0.292,0.012 0.274,0.005 0.26,-0.01C0.247,-0.024 0.24,-0.047 0.24,-0.076L0.24,-0.596L0.082,-0.596C0.057,-0.596 0.039,-0.602 0.027,-0.613C0.015,-0.623 0.009,-0.638 0.009,-0.656C0.009,-0.674 0.015,-0.689 0.028,-0.7C0.04,-0.71 0.058,-0.716 0.082,-0.716L0.543,-0.716C0.568,-0.716 0.587,-0.71 0.599,-0.699C0.611,-0.688 0.617,-0.674 0.617,-0.656C0.617,-0.638 0.611,-0.623 0.599,-0.613C0.586,-0.602 0.568,-0.596 0.543,-0.596Z" style="fill-rule:nonzero;"/>
                </g>
            </g>
        </g>
        <g transform="matrix(1,0,0,1,2.08795,186.946)">
            <g transform="matrix(0.552947,0,0,1.41025,966.234,-285.621)">
                <path d="M73.138,59.642C73.138,58.142 69.254,56.924 64.471,56.924L13.773,56.924C8.99,56.924 5.107,58.142 5.107,59.642L5.107,80.985C5.107,82.486 8.99,83.704 13.773,83.704L64.471,83.704C69.254,83.704 73.138,82.486 73.138,80.985L73.138,59.642Z" style="fill:white;fill-opacity:0.5;"/>
            </g>
            <g transform="matrix(1.198,0,0,0.958552,938.307,-247.05)">
                <g transform="matrix(6.4,0,0,6.4,28.0609,51.8924)">
                    <path d="M0.22,-0.64L0.22,-0.119L0.514,-0.119C0.538,-0.119 0.556,-0.113 0.568,-0.102C0.581,-0.091 0.587,-0.076 0.587,-0.059C0.587,-0.042 0.581,-0.027 0.568,-0.016C0.556,-0.005 0.538,-0 0.514,-0L0.164,-0C0.132,-0 0.11,-0.007 0.096,-0.021C0.082,-0.035 0.075,-0.058 0.075,-0.089L0.075,-0.64C0.075,-0.669 0.082,-0.691 0.095,-0.706C0.108,-0.721 0.125,-0.728 0.147,-0.728C0.169,-0.728 0.186,-0.721 0.2,-0.706C0.213,-0.692 0.22,-0.67 0.22,-0.64Z" style="fill-rule:nonzero;"/>
                </g>
                <g transform="matrix(6.4,0,0,6.4,31.7358,51.8924)">
                    <path d="M0.393,-0.728C0.467,-0.728 0.531,-0.713 0.584,-0.683C0.637,-0.653 0.678,-0.61 0.705,-0.554C0.732,-0.499 0.746,-0.434 0.746,-0.359C0.746,-0.304 0.739,-0.253 0.724,-0.208C0.709,-0.163 0.686,-0.124 0.656,-0.09C0.626,-0.057 0.59,-0.032 0.546,-0.014C0.502,0.003 0.452,0.012 0.396,0.012C0.34,0.012 0.29,0.003 0.246,-0.015C0.201,-0.033 0.164,-0.058 0.135,-0.091C0.105,-0.124 0.083,-0.164 0.068,-0.21C0.052,-0.256 0.045,-0.306 0.045,-0.36C0.045,-0.415 0.053,-0.465 0.069,-0.511C0.084,-0.557 0.107,-0.596 0.137,-0.628C0.167,-0.661 0.204,-0.685 0.247,-0.702C0.29,-0.719 0.338,-0.728 0.393,-0.728ZM0.599,-0.36C0.599,-0.412 0.591,-0.458 0.574,-0.496C0.557,-0.535 0.533,-0.564 0.501,-0.583C0.47,-0.603 0.434,-0.613 0.393,-0.613C0.364,-0.613 0.337,-0.607 0.313,-0.596C0.288,-0.586 0.267,-0.57 0.249,-0.549C0.232,-0.528 0.218,-0.501 0.207,-0.469C0.197,-0.437 0.192,-0.4 0.192,-0.36C0.192,-0.319 0.197,-0.282 0.207,-0.25C0.218,-0.217 0.232,-0.189 0.251,-0.168C0.269,-0.146 0.291,-0.13 0.315,-0.119C0.339,-0.108 0.366,-0.103 0.395,-0.103C0.432,-0.103 0.466,-0.112 0.497,-0.131C0.528,-0.149 0.553,-0.178 0.572,-0.217C0.59,-0.256 0.599,-0.303 0.599,-0.36Z" style="fill-rule:nonzero;"/>
                </g>
                <g transform="matrix(6.4,0,0,6.4,36.6888,51.8924)">
                    <path d="M0.536,-0.081L0.502,-0.171L0.211,-0.171L0.177,-0.079C0.163,-0.043 0.152,-0.019 0.143,-0.007C0.133,0.006 0.118,0.012 0.096,0.012C0.078,0.012 0.062,0.006 0.048,-0.008C0.034,-0.021 0.027,-0.036 0.027,-0.053C0.027,-0.063 0.028,-0.073 0.032,-0.083C0.035,-0.094 0.04,-0.108 0.048,-0.127L0.231,-0.592C0.236,-0.605 0.242,-0.621 0.25,-0.64C0.257,-0.659 0.265,-0.674 0.273,-0.687C0.281,-0.699 0.292,-0.709 0.306,-0.717C0.319,-0.724 0.336,-0.728 0.356,-0.728C0.376,-0.728 0.393,-0.724 0.406,-0.717C0.42,-0.709 0.431,-0.699 0.439,-0.687C0.448,-0.675 0.455,-0.662 0.46,-0.648C0.466,-0.634 0.473,-0.616 0.482,-0.593L0.669,-0.131C0.684,-0.096 0.691,-0.07 0.691,-0.054C0.691,-0.038 0.684,-0.022 0.67,-0.009C0.656,0.005 0.64,0.012 0.62,0.012C0.609,0.012 0.599,0.01 0.591,0.006C0.583,0.002 0.576,-0.003 0.57,-0.01C0.565,-0.017 0.559,-0.028 0.552,-0.043C0.546,-0.057 0.541,-0.07 0.536,-0.081ZM0.249,-0.28L0.463,-0.28L0.355,-0.575L0.249,-0.28Z" style="fill-rule:nonzero;"/>
                </g>
                <g transform="matrix(6.4,0,0,6.4,41.4199,51.8924)">
                    <path d="M0.168,-0.716L0.357,-0.716C0.406,-0.716 0.448,-0.711 0.483,-0.702C0.519,-0.693 0.55,-0.676 0.579,-0.651C0.654,-0.587 0.691,-0.49 0.691,-0.36C0.691,-0.317 0.687,-0.278 0.68,-0.242C0.672,-0.207 0.661,-0.175 0.645,-0.146C0.629,-0.118 0.609,-0.092 0.585,-0.07C0.566,-0.053 0.545,-0.039 0.522,-0.028C0.499,-0.018 0.475,-0.011 0.448,-0.006C0.422,-0.002 0.393,-0 0.36,-0L0.171,-0C0.145,-0 0.125,-0.004 0.111,-0.012C0.098,-0.02 0.089,-0.031 0.085,-0.046C0.081,-0.06 0.079,-0.079 0.079,-0.102L0.079,-0.627C0.079,-0.658 0.086,-0.681 0.1,-0.695C0.114,-0.709 0.137,-0.716 0.168,-0.716ZM0.224,-0.601L0.224,-0.115L0.334,-0.115C0.358,-0.115 0.377,-0.116 0.391,-0.117C0.404,-0.118 0.418,-0.122 0.433,-0.127C0.448,-0.132 0.46,-0.139 0.471,-0.149C0.52,-0.19 0.544,-0.261 0.544,-0.361C0.544,-0.431 0.533,-0.484 0.512,-0.52C0.491,-0.555 0.464,-0.577 0.433,-0.587C0.402,-0.596 0.364,-0.601 0.32,-0.601L0.224,-0.601Z" style="fill-rule:nonzero;"/>
                </g>
                <g transform="matrix(6.4,0,0,6.4,46.2854,51.8924)">
                    <path d="M0.354,-0.103L0.228,-0.103L0.228,-0.289L0.041,-0.289L0.041,-0.417L0.228,-0.417L0.228,-0.604L0.354,-0.604L0.354,-0.417L0.542,-0.417L0.542,-0.289L0.354,-0.289L0.354,-0.103Z" style="fill-rule:nonzero;"/>
                </g>
                <g transform="matrix(6.4,0,0,6.4,50.1447,51.8924)">
                    <path d="M0.622,-0.215C0.622,-0.172 0.611,-0.133 0.589,-0.098C0.566,-0.064 0.534,-0.037 0.491,-0.017C0.448,0.002 0.397,0.012 0.338,0.012C0.267,0.012 0.209,-0.001 0.163,-0.028C0.131,-0.047 0.104,-0.073 0.084,-0.105C0.063,-0.137 0.053,-0.168 0.053,-0.198C0.053,-0.216 0.059,-0.231 0.072,-0.243C0.084,-0.256 0.099,-0.262 0.118,-0.262C0.133,-0.262 0.146,-0.257 0.157,-0.248C0.168,-0.238 0.177,-0.223 0.184,-0.204C0.193,-0.181 0.203,-0.162 0.214,-0.147C0.224,-0.132 0.239,-0.119 0.258,-0.109C0.278,-0.099 0.303,-0.094 0.334,-0.094C0.377,-0.094 0.412,-0.104 0.439,-0.124C0.466,-0.144 0.479,-0.169 0.479,-0.199C0.479,-0.223 0.472,-0.242 0.457,-0.257C0.443,-0.272 0.424,-0.283 0.401,-0.291C0.378,-0.299 0.347,-0.307 0.309,-0.316C0.258,-0.328 0.215,-0.342 0.18,-0.358C0.145,-0.374 0.118,-0.396 0.097,-0.424C0.077,-0.452 0.067,-0.486 0.067,-0.528C0.067,-0.567 0.078,-0.602 0.099,-0.633C0.121,-0.663 0.152,-0.687 0.192,-0.703C0.233,-0.72 0.281,-0.728 0.336,-0.728C0.38,-0.728 0.418,-0.723 0.45,-0.712C0.482,-0.701 0.509,-0.686 0.53,-0.668C0.551,-0.65 0.566,-0.631 0.576,-0.611C0.586,-0.591 0.591,-0.572 0.591,-0.553C0.591,-0.536 0.585,-0.52 0.573,-0.507C0.56,-0.493 0.545,-0.486 0.527,-0.486C0.51,-0.486 0.498,-0.49 0.489,-0.498C0.48,-0.507 0.471,-0.52 0.461,-0.539C0.448,-0.566 0.432,-0.587 0.414,-0.602C0.396,-0.617 0.367,-0.625 0.326,-0.625C0.289,-0.625 0.259,-0.617 0.236,-0.6C0.213,-0.584 0.201,-0.564 0.201,-0.541C0.201,-0.527 0.205,-0.514 0.213,-0.504C0.221,-0.493 0.231,-0.485 0.245,-0.477C0.259,-0.47 0.273,-0.464 0.287,-0.459C0.301,-0.455 0.324,-0.449 0.356,-0.441C0.396,-0.431 0.433,-0.421 0.466,-0.41C0.498,-0.398 0.526,-0.384 0.549,-0.368C0.572,-0.352 0.59,-0.331 0.603,-0.306C0.616,-0.281 0.622,-0.251 0.622,-0.215Z" style="fill-rule:nonzero;"/>
                </g>
            </g>
        </g>
        <g id="warning-exclamation-sign-in-filled-triangle-svgrepo-com" transform="matrix(0.13379,0,0,0.107049,989.955,-195.746)">
            <g transform="matrix(1,0,0,1,-61.9973,-61.9984)">
                <g>
                    <path d="M9.821,118.048L114.221,118.048C121.521,118.048 126.221,110.348 122.921,103.848L70.721,11.348C67.12,4.149 56.821,4.149 53.221,11.348L1.021,103.848C-2.179,110.348 2.521,118.048 9.821,118.048ZM70.222,96.548C70.222,101.348 66.722,105.048 61.722,105.048C56.722,105.048 53.222,101.348 53.222,96.548L53.222,96.348C53.222,91.548 56.722,87.848 61.722,87.848C66.722,87.848 70.222,91.548 70.222,96.348L70.222,96.548ZM57.121,34.048L66.922,34.048C69.621,34.048 71.222,36.348 70.922,39.248L66.621,76.848C66.321,79.548 64.521,81.248 62.021,81.248C59.521,81.248 57.721,79.548 57.421,76.848L53.12,39.248C52.821,36.348 54.422,34.048 57.121,34.048Z" style="fill:rgb(228,217,217);fill-rule:nonzero;"/>
                </g>
            </g>
        </g>
        <g transform="matrix(7.33566e-17,-0.958552,1.198,5.86944e-17,986.893,-143.767)">
            <g transform="matrix(6,0,0,6,-7.18024,0)">
                <path d="M0.679,-0.604L0.454,-0.604L0.343,-0L0.215,-0L0.325,-0.604L0.098,-0.604L0.118,-0.715L0.7,-0.715L0.679,-0.604Z" style="fill:white;fill-opacity:0.8;fill-rule:nonzero;"/>
            </g>
            <g transform="matrix(6,0,0,6,-3.15989,0)">
                <path d="M0.413,-0.317L0.572,-0L0.429,-0L0.292,-0.296C0.27,-0.296 0.243,-0.298 0.211,-0.3L0.156,-0L0.025,-0L0.156,-0.715C0.251,-0.72 0.313,-0.723 0.343,-0.723C0.42,-0.723 0.481,-0.708 0.526,-0.678C0.57,-0.648 0.593,-0.605 0.593,-0.549C0.593,-0.492 0.576,-0.442 0.544,-0.4C0.511,-0.358 0.467,-0.33 0.413,-0.317ZM0.267,-0.605L0.23,-0.405C0.249,-0.403 0.266,-0.402 0.281,-0.402C0.404,-0.402 0.466,-0.441 0.466,-0.52C0.466,-0.552 0.454,-0.576 0.43,-0.59C0.407,-0.603 0.368,-0.61 0.313,-0.61C0.308,-0.61 0.293,-0.609 0.267,-0.605Z" style="fill:white;fill-opacity:0.8;fill-rule:nonzero;"/>
            </g>
            <g transform="matrix(6,0,0,6,0.491324,0)">
                <path d="M0.161,-0L0.033,-0L0.165,-0.715L0.292,-0.715L0.161,-0Z" style="fill:white;fill-opacity:0.8;fill-rule:nonzero;"/>
            </g>
            <g transform="matrix(6,0,0,6,2.07125,0)">
                <path d="M0.448,-0L0.426,-0.146L0.17,-0.146L0.086,-0L-0.046,-0L0.388,-0.725L0.434,-0.725L0.581,-0L0.448,-0ZM0.371,-0.508L0.224,-0.241L0.412,-0.241L0.371,-0.508Z" style="fill:white;fill-opacity:0.8;fill-rule:nonzero;"/>
            </g>
            <g transform="matrix(6,0,0,6,5.66386,0)">
                <path d="M0.476,-0L0.024,-0L0.156,-0.715L0.284,-0.715L0.173,-0.111L0.496,-0.111L0.476,-0Z" style="fill:white;fill-opacity:0.8;fill-rule:nonzero;"/>
            </g>
            <g transform="matrix(6,0,0,6,8.74379,0)">
                <path d="M0.043,-0.232L0.063,-0.347L0.322,-0.347L0.301,-0.232L0.043,-0.232Z" style="fill:white;fill-opacity:0.8;fill-rule:nonzero;"/>
            </g>
            <g transform="matrix(6,0,0,6,10.8569,0)">
                <path d="M0.448,-0L0.426,-0.146L0.17,-0.146L0.086,-0L-0.046,-0L0.388,-0.725L0.434,-0.725L0.581,-0L0.448,-0ZM0.371,-0.508L0.224,-0.241L0.412,-0.241L0.371,-0.508Z" style="fill:white;fill-opacity:0.8;fill-rule:nonzero;"/>
            </g>
            <g transform="matrix(6,0,0,6,14.4495,0)">
                <path d="M0.543,0.01L0.494,0.01L0.23,-0.453L0.151,-0L0.025,-0L0.157,-0.715L0.215,-0.715L0.474,-0.272L0.551,-0.715L0.677,-0.715L0.543,0.01Z" style="fill:white;fill-opacity:0.8;fill-rule:nonzero;"/>
            </g>
            <g transform="matrix(6,0,0,6,18.3205,0)">
                <path d="M0.194,-0L0.021,-0L0.151,-0.714C0.199,-0.722 0.243,-0.727 0.285,-0.727C0.394,-0.727 0.479,-0.702 0.538,-0.652C0.598,-0.602 0.627,-0.53 0.627,-0.436C0.627,-0.303 0.588,-0.197 0.509,-0.118C0.431,-0.039 0.325,-0 0.194,-0ZM0.257,-0.611L0.17,-0.114C0.185,-0.112 0.198,-0.112 0.209,-0.112C0.297,-0.112 0.366,-0.143 0.417,-0.204C0.469,-0.266 0.495,-0.345 0.495,-0.441C0.495,-0.494 0.477,-0.536 0.441,-0.568C0.406,-0.6 0.36,-0.616 0.305,-0.616C0.289,-0.616 0.273,-0.614 0.257,-0.611Z" style="fill:white;fill-opacity:0.8;fill-rule:nonzero;"/>
            </g>
            <g transform="matrix(6,0,0,6,22.0244,0)">
                <path d="M0.043,-0.232L0.063,-0.347L0.322,-0.347L0.301,-0.232L0.043,-0.232Z" style="fill:white;fill-opacity:0.8;fill-rule:nonzero;"/>
            </g>
            <g transform="matrix(6,0,0,6,24.1375,0)">
                <path d="M0.592,-0.604L0.262,-0.604L0.232,-0.439L0.469,-0.439L0.449,-0.333L0.212,-0.333L0.172,-0.111L0.497,-0.111L0.476,-0L0.021,-0L0.152,-0.715L0.613,-0.715L0.592,-0.604Z" style="fill:white;fill-opacity:0.8;fill-rule:nonzero;"/>
            </g>
            <g transform="matrix(6,0,0,6,27.6071,0)">
                <path d="M0.413,-0.317L0.572,-0L0.429,-0L0.292,-0.296C0.27,-0.296 0.243,-0.298 0.211,-0.3L0.156,-0L0.025,-0L0.156,-0.715C0.251,-0.72 0.313,-0.723 0.343,-0.723C0.42,-0.723 0.481,-0.708 0.526,-0.678C0.57,-0.648 0.593,-0.605 0.593,-0.549C0.593,-0.492 0.576,-0.442 0.544,-0.4C0.511,-0.358 0.467,-0.33 0.413,-0.317ZM0.267,-0.605L0.23,-0.405C0.249,-0.403 0.266,-0.402 0.281,-0.402C0.404,-0.402 0.466,-0.441 0.466,-0.52C0.466,-0.552 0.454,-0.576 0.43,-0.59C0.407,-0.603 0.368,-0.61 0.313,-0.61C0.308,-0.61 0.293,-0.609 0.267,-0.605Z" style="fill:white;fill-opacity:0.8;fill-rule:nonzero;"/>
            </g>
            <g transform="matrix(6,0,0,6,31.2583,0)">
                <path d="M0.413,-0.317L0.572,-0L0.429,-0L0.292,-0.296C0.27,-0.296 0.243,-0.298 0.211,-0.3L0.156,-0L0.025,-0L0.156,-0.715C0.251,-0.72 0.313,-0.723 0.343,-0.723C0.42,-0.723 0.481,-0.708 0.526,-0.678C0.57,-0.648 0.593,-0.605 0.593,-0.549C0.593,-0.492 0.576,-0.442 0.544,-0.4C0.511,-0.358 0.467,-0.33 0.413,-0.317ZM0.267,-0.605L0.23,-0.405C0.249,-0.403 0.266,-0.402 0.281,-0.402C0.404,-0.402 0.466,-0.441 0.466,-0.52C0.466,-0.552 0.454,-0.576 0.43,-0.59C0.407,-0.603 0.368,-0.61 0.313,-0.61C0.308,-0.61 0.293,-0.609 0.267,-0.605Z" style="fill:white;fill-opacity:0.8;fill-rule:nonzero;"/>
            </g>
            <g transform="matrix(6,0,0,6,34.9095,0)">
                <path d="M0.048,-0.266C0.048,-0.393 0.083,-0.502 0.153,-0.593C0.222,-0.683 0.313,-0.728 0.424,-0.728C0.509,-0.728 0.575,-0.705 0.622,-0.66C0.668,-0.615 0.691,-0.549 0.691,-0.463C0.691,-0.322 0.655,-0.208 0.584,-0.12C0.514,-0.032 0.416,0.012 0.293,0.012C0.217,0.012 0.158,-0.013 0.114,-0.064C0.07,-0.115 0.048,-0.182 0.048,-0.266ZM0.18,-0.279C0.18,-0.224 0.191,-0.181 0.213,-0.148C0.235,-0.115 0.267,-0.099 0.309,-0.099C0.386,-0.099 0.447,-0.134 0.492,-0.204C0.537,-0.273 0.56,-0.356 0.56,-0.453C0.56,-0.563 0.511,-0.617 0.415,-0.617C0.347,-0.617 0.291,-0.581 0.247,-0.51C0.202,-0.438 0.18,-0.361 0.18,-0.279Z" style="fill:white;fill-opacity:0.8;fill-rule:nonzero;"/>
            </g>
            <g transform="matrix(6,0,0,6,39.0324,0)">
                <path d="M0.413,-0.317L0.572,-0L0.429,-0L0.292,-0.296C0.27,-0.296 0.243,-0.298 0.211,-0.3L0.156,-0L0.025,-0L0.156,-0.715C0.251,-0.72 0.313,-0.723 0.343,-0.723C0.42,-0.723 0.481,-0.708 0.526,-0.678C0.57,-0.648 0.593,-0.605 0.593,-0.549C0.593,-0.492 0.576,-0.442 0.544,-0.4C0.511,-0.358 0.467,-0.33 0.413,-0.317ZM0.267,-0.605L0.23,-0.405C0.249,-0.403 0.266,-0.402 0.281,-0.402C0.404,-0.402 0.466,-0.441 0.466,-0.52C0.466,-0.552 0.454,-0.576 0.43,-0.59C0.407,-0.603 0.368,-0.61 0.313,-0.61C0.308,-0.61 0.293,-0.609 0.267,-0.605Z" style="fill:white;fill-opacity:0.8;fill-rule:nonzero;"/>
            </g>
            <g transform="matrix(6,0,0,6,24.6308,6)">
                <path d="M0.459,-0.574C0.421,-0.602 0.383,-0.616 0.344,-0.616C0.265,-0.616 0.226,-0.586 0.226,-0.527C0.226,-0.502 0.247,-0.472 0.289,-0.437L0.362,-0.375C0.385,-0.355 0.401,-0.341 0.41,-0.332C0.418,-0.323 0.428,-0.31 0.438,-0.294C0.447,-0.278 0.455,-0.262 0.459,-0.246C0.464,-0.23 0.467,-0.213 0.467,-0.196C0.467,-0.131 0.442,-0.08 0.393,-0.043C0.344,-0.006 0.281,0.012 0.203,0.012C0.139,0.012 0.078,-0.002 0.021,-0.029L0.062,-0.155C0.106,-0.122 0.156,-0.105 0.214,-0.105C0.249,-0.105 0.278,-0.113 0.301,-0.128C0.323,-0.142 0.335,-0.164 0.335,-0.191C0.335,-0.218 0.314,-0.248 0.272,-0.28L0.196,-0.341C0.172,-0.36 0.156,-0.374 0.148,-0.382C0.14,-0.391 0.131,-0.403 0.122,-0.418C0.113,-0.433 0.106,-0.448 0.102,-0.464C0.097,-0.48 0.095,-0.497 0.095,-0.514C0.095,-0.579 0.117,-0.632 0.16,-0.67C0.204,-0.708 0.261,-0.728 0.332,-0.728C0.355,-0.728 0.385,-0.725 0.421,-0.719C0.458,-0.714 0.483,-0.708 0.498,-0.701L0.459,-0.574Z" style="fill:white;fill-opacity:0.8;fill-rule:nonzero;"/>
            </g>
            <g transform="matrix(6,0,0,6,27.5496,6)">
                <path d="M0.592,-0.604L0.262,-0.604L0.232,-0.439L0.469,-0.439L0.449,-0.333L0.212,-0.333L0.172,-0.111L0.497,-0.111L0.476,-0L0.021,-0L0.152,-0.715L0.613,-0.715L0.592,-0.604Z" style="fill:white;fill-opacity:0.8;fill-rule:nonzero;"/>
            </g>
            <g transform="matrix(6,0,0,6,31.0191,6)">
                <path d="M0.413,-0.317L0.572,-0L0.429,-0L0.292,-0.296C0.27,-0.296 0.243,-0.298 0.211,-0.3L0.156,-0L0.025,-0L0.156,-0.715C0.251,-0.72 0.313,-0.723 0.343,-0.723C0.42,-0.723 0.481,-0.708 0.526,-0.678C0.57,-0.648 0.593,-0.605 0.593,-0.549C0.593,-0.492 0.576,-0.442 0.544,-0.4C0.511,-0.358 0.467,-0.33 0.413,-0.317ZM0.267,-0.605L0.23,-0.405C0.249,-0.403 0.266,-0.402 0.281,-0.402C0.404,-0.402 0.466,-0.441 0.466,-0.52C0.466,-0.552 0.454,-0.576 0.43,-0.59C0.407,-0.603 0.368,-0.61 0.313,-0.61C0.308,-0.61 0.293,-0.609 0.267,-0.605Z" style="fill:white;fill-opacity:0.8;fill-rule:nonzero;"/>
            </g>
            <g transform="matrix(6,0,0,6,34.6704,6)">
                <path d="M0.161,-0L0.033,-0L0.165,-0.715L0.292,-0.715L0.161,-0Z" style="fill:white;fill-opacity:0.8;fill-rule:nonzero;"/>
            </g>
            <g transform="matrix(6,0,0,6,36.2503,6)">
                <path d="M0.592,-0.604L0.262,-0.604L0.232,-0.439L0.469,-0.439L0.449,-0.333L0.212,-0.333L0.172,-0.111L0.497,-0.111L0.476,-0L0.021,-0L0.152,-0.715L0.613,-0.715L0.592,-0.604Z" style="fill:white;fill-opacity:0.8;fill-rule:nonzero;"/>
            </g>
            <g transform="matrix(6,0,0,6,39.7198,6)">
                <path d="M0.459,-0.574C0.421,-0.602 0.383,-0.616 0.344,-0.616C0.265,-0.616 0.226,-0.586 0.226,-0.527C0.226,-0.502 0.247,-0.472 0.289,-0.437L0.362,-0.375C0.385,-0.355 0.401,-0.341 0.41,-0.332C0.418,-0.323 0.428,-0.31 0.438,-0.294C0.447,-0.278 0.455,-0.262 0.459,-0.246C0.464,-0.23 0.467,-0.213 0.467,-0.196C0.467,-0.131 0.442,-0.08 0.393,-0.043C0.344,-0.006 0.281,0.012 0.203,0.012C0.139,0.012 0.078,-0.002 0.021,-0.029L0.062,-0.155C0.106,-0.122 0.156,-0.105 0.214,-0.105C0.249,-0.105 0.278,-0.113 0.301,-0.128C0.323,-0.142 0.335,-0.164 0.335,-0.191C0.335,-0.218 0.314,-0.248 0.272,-0.28L0.196,-0.341C0.172,-0.36 0.156,-0.374 0.148,-0.382C0.14,-0.391 0.131,-0.403 0.122,-0.418C0.113,-0.433 0.106,-0.448 0.102,-0.464C0.097,-0.48 0.095,-0.497 0.095,-0.514C0.095,-0.579 0.117,-0.632 0.16,-0.67C0.204,-0.708 0.261,-0.728 0.332,-0.728C0.355,-0.728 0.385,-0.725 0.421,-0.719C0.458,-0.714 0.483,-0.708 0.498,-0.701L0.459,-0.574Z" style="fill:white;fill-opacity:0.8;fill-rule:nonzero;"/>
            </g>
        </g>
        <g transform="matrix(1,0,0,1,2.08795,145.182)">
            <g transform="matrix(0.552947,0,0,1.41025,966.234,-285.621)">
                <path d="M73.138,59.642C73.138,58.142 69.254,56.924 64.471,56.924L13.773,56.924C8.99,56.924 5.107,58.142 5.107,59.642L5.107,80.985C5.107,82.486 8.99,83.704 13.773,83.704L64.471,83.704C69.254,83.704 73.138,82.486 73.138,80.985L73.138,59.642Z" style="fill:white;fill-opacity:0.5;"/>
            </g>
            <g transform="matrix(1.198,0,0,0.958552,938.307,-247.05)">
                <g transform="matrix(6.4,0,0,6.4,32.1889,51.8924)">
                    <path d="M0.22,-0.64L0.22,-0.119L0.514,-0.119C0.538,-0.119 0.556,-0.113 0.568,-0.102C0.581,-0.091 0.587,-0.076 0.587,-0.059C0.587,-0.042 0.581,-0.027 0.568,-0.016C0.556,-0.005 0.538,-0 0.514,-0L0.164,-0C0.132,-0 0.11,-0.007 0.096,-0.021C0.082,-0.035 0.075,-0.058 0.075,-0.089L0.075,-0.64C0.075,-0.669 0.082,-0.691 0.095,-0.706C0.108,-0.721 0.125,-0.728 0.147,-0.728C0.169,-0.728 0.186,-0.721 0.2,-0.706C0.213,-0.692 0.22,-0.67 0.22,-0.64Z" style="fill-rule:nonzero;"/>
                </g>
                <g transform="matrix(6.4,0,0,6.4,35.8638,51.8924)">
                    <path d="M0.393,-0.728C0.467,-0.728 0.531,-0.713 0.584,-0.683C0.637,-0.653 0.678,-0.61 0.705,-0.554C0.732,-0.499 0.746,-0.434 0.746,-0.359C0.746,-0.304 0.739,-0.253 0.724,-0.208C0.709,-0.163 0.686,-0.124 0.656,-0.09C0.626,-0.057 0.59,-0.032 0.546,-0.014C0.502,0.003 0.452,0.012 0.396,0.012C0.34,0.012 0.29,0.003 0.246,-0.015C0.201,-0.033 0.164,-0.058 0.135,-0.091C0.105,-0.124 0.083,-0.164 0.068,-0.21C0.052,-0.256 0.045,-0.306 0.045,-0.36C0.045,-0.415 0.053,-0.465 0.069,-0.511C0.084,-0.557 0.107,-0.596 0.137,-0.628C0.167,-0.661 0.204,-0.685 0.247,-0.702C0.29,-0.719 0.338,-0.728 0.393,-0.728ZM0.599,-0.36C0.599,-0.412 0.591,-0.458 0.574,-0.496C0.557,-0.535 0.533,-0.564 0.501,-0.583C0.47,-0.603 0.434,-0.613 0.393,-0.613C0.364,-0.613 0.337,-0.607 0.313,-0.596C0.288,-0.586 0.267,-0.57 0.249,-0.549C0.232,-0.528 0.218,-0.501 0.207,-0.469C0.197,-0.437 0.192,-0.4 0.192,-0.36C0.192,-0.319 0.197,-0.282 0.207,-0.25C0.218,-0.217 0.232,-0.189 0.251,-0.168C0.269,-0.146 0.291,-0.13 0.315,-0.119C0.339,-0.108 0.366,-0.103 0.395,-0.103C0.432,-0.103 0.466,-0.112 0.497,-0.131C0.528,-0.149 0.553,-0.178 0.572,-0.217C0.59,-0.256 0.599,-0.303 0.599,-0.36Z" style="fill-rule:nonzero;"/>
                </g>
                <g transform="matrix(6.4,0,0,6.4,40.8168,51.8924)">
                    <path d="M0.536,-0.081L0.502,-0.171L0.211,-0.171L0.177,-0.079C0.163,-0.043 0.152,-0.019 0.143,-0.007C0.133,0.006 0.118,0.012 0.096,0.012C0.078,0.012 0.062,0.006 0.048,-0.008C0.034,-0.021 0.027,-0.036 0.027,-0.053C0.027,-0.063 0.028,-0.073 0.032,-0.083C0.035,-0.094 0.04,-0.108 0.048,-0.127L0.231,-0.592C0.236,-0.605 0.242,-0.621 0.25,-0.64C0.257,-0.659 0.265,-0.674 0.273,-0.687C0.281,-0.699 0.292,-0.709 0.306,-0.717C0.319,-0.724 0.336,-0.728 0.356,-0.728C0.376,-0.728 0.393,-0.724 0.406,-0.717C0.42,-0.709 0.431,-0.699 0.439,-0.687C0.448,-0.675 0.455,-0.662 0.46,-0.648C0.466,-0.634 0.473,-0.616 0.482,-0.593L0.669,-0.131C0.684,-0.096 0.691,-0.07 0.691,-0.054C0.691,-0.038 0.684,-0.022 0.67,-0.009C0.656,0.005 0.64,0.012 0.62,0.012C0.609,0.012 0.599,0.01 0.591,0.006C0.583,0.002 0.576,-0.003 0.57,-0.01C0.565,-0.017 0.559,-0.028 0.552,-0.043C0.546,-0.057 0.541,-0.07 0.536,-0.081ZM0.249,-0.28L0.463,-0.28L0.355,-0.575L0.249,-0.28Z" style="fill-rule:nonzero;"/>
                </g>
                <g transform="matrix(6.4,0,0,6.4,45.5479,51.8924)">
                    <path d="M0.168,-0.716L0.357,-0.716C0.406,-0.716 0.448,-0.711 0.483,-0.702C0.519,-0.693 0.55,-0.676 0.579,-0.651C0.654,-0.587 0.691,-0.49 0.691,-0.36C0.691,-0.317 0.687,-0.278 0.68,-0.242C0.672,-0.207 0.661,-0.175 0.645,-0.146C0.629,-0.118 0.609,-0.092 0.585,-0.07C0.566,-0.053 0.545,-0.039 0.522,-0.028C0.499,-0.018 0.475,-0.011 0.448,-0.006C0.422,-0.002 0.393,-0 0.36,-0L0.171,-0C0.145,-0 0.125,-0.004 0.111,-0.012C0.098,-0.02 0.089,-0.031 0.085,-0.046C0.081,-0.06 0.079,-0.079 0.079,-0.102L0.079,-0.627C0.079,-0.658 0.086,-0.681 0.1,-0.695C0.114,-0.709 0.137,-0.716 0.168,-0.716ZM0.224,-0.601L0.224,-0.115L0.334,-0.115C0.358,-0.115 0.377,-0.116 0.391,-0.117C0.404,-0.118 0.418,-0.122 0.433,-0.127C0.448,-0.132 0.46,-0.139 0.471,-0.149C0.52,-0.19 0.544,-0.261 0.544,-0.361C0.544,-0.431 0.533,-0.484 0.512,-0.52C0.491,-0.555 0.464,-0.577 0.433,-0.587C0.402,-0.596 0.364,-0.601 0.32,-0.601L0.224,-0.601Z" style="fill-rule:nonzero;"/>
                </g>
            </g>
        </g>
    </g>
</svg>
